<?xml version="1.0" ?>
<!DOCTYPE svg  PUBLIC '-//W3C//DTD SVG 1.1//EN'  'http://www.w3.org/Graphics/SVG/1.1/DTD/svg11.dtd'>
<!-- Uploaded to: SVG Repo, www.svgrepo.com, Generator: SVG Repo Mixer Tools -->
<svg fill="#000000" width="800px" height="800px" viewBox="0 0 512 512" enable-background="new 0 0 512 512" id="Organic_x5F_reach" version="1.1" xml:space="preserve" xmlns="http://www.w3.org/2000/svg" xmlns:xlink="http://www.w3.org/1999/xlink">
<g>
<path d="M412.933,278.424c3.74,0,6.774-3.033,6.774-6.773s-3.034-6.774-6.774-6.774h-53.605c-3.741,0-6.774,3.034-6.774,6.774   V456.13c0,3.741,3.033,6.774,6.774,6.774h53.605c3.74,0,6.774-3.033,6.774-6.774V298.921c0-3.741-3.034-6.774-6.774-6.774   s-6.774,3.033-6.774,6.774v150.435h-40.057V278.424H412.933z"/>
<path d="M277.47,336.13c3.74,0,6.774-3.034,6.774-6.774s-3.034-6.773-6.774-6.773h-53.607c-3.742,0-6.774,3.033-6.774,6.773V456.13   c0,3.741,3.033,6.774,6.774,6.774h53.607c3.74,0,6.774-3.033,6.774-6.774v-92.563c0-3.74-3.034-6.773-6.774-6.773   s-6.774,3.033-6.774,6.773v85.789h-40.059V336.13H277.47z"/>
<path d="M142.005,392.447c3.741,0,6.774-3.033,6.774-6.773s-3.033-6.774-6.774-6.774H88.397c-3.742,0-6.774,3.034-6.774,6.774   v70.456c0,3.741,3.032,6.774,6.774,6.774h53.608c3.741,0,6.774-3.033,6.774-6.774v-40.674c0-3.74-3.033-6.774-6.774-6.774   c-3.742,0-6.774,3.034-6.774,6.774v33.899H95.172v-56.908H142.005z"/>
<path d="M234.652,238.577c2.264-2.978,1.686-7.229-1.292-9.492c-2.979-2.265-7.227-1.688-9.493,1.292   c-3.446,4.531-8.682,7.13-14.366,7.13h-63.941c-1.611,0-3.17,0.574-4.396,1.62l-29.479,25.135l4.74-18.281   c0.525-2.028,0.083-4.187-1.2-5.845c-1.284-1.657-3.262-2.629-5.358-2.629H70.681c-9.943,0-18.033-8.09-18.033-18.033v-98.453   c0-7.338,4.382-13.885,11.165-16.682c3.459-1.426,5.107-5.386,3.681-8.845c-1.427-3.457-5.382-5.11-8.845-3.68   c-11.875,4.896-19.55,16.359-19.55,29.206v98.453c0,17.413,14.167,31.582,31.582,31.582h30.433l-7.933,30.595   c-0.742,2.862,0.458,5.873,2.964,7.441c1.105,0.692,2.352,1.032,3.593,1.032c1.574,0,3.139-0.546,4.396-1.62l43.921-37.448h61.445   C219.455,251.056,228.622,246.508,234.652,238.577z"/>
<path d="M273.928,62.645c9.943,0,18.033,8.089,18.033,18.033v10.821c0,3.74,3.034,6.774,6.774,6.774s6.774-3.034,6.774-6.774   V80.678c0-17.414-14.169-31.582-31.582-31.582c-3.74,0-6.774,3.033-6.774,6.774C267.153,59.61,270.188,62.645,273.928,62.645z"/>
<path d="M298.735,197.166c-3.74,0-6.774,3.033-6.774,6.774v38.723l-25.174-42.193c-0.031-0.053-0.074-0.093-0.107-0.144   c-0.132-0.208-0.284-0.397-0.438-0.59c-0.129-0.161-0.251-0.328-0.392-0.475c-0.152-0.159-0.322-0.296-0.49-0.44   c-0.166-0.142-0.325-0.29-0.503-0.414c-0.182-0.129-0.381-0.23-0.575-0.342c-0.182-0.102-0.357-0.212-0.546-0.296   c-0.213-0.096-0.437-0.162-0.659-0.235c-0.194-0.063-0.383-0.135-0.581-0.18c-0.213-0.05-0.434-0.072-0.654-0.101   c-0.228-0.03-0.453-0.063-0.683-0.069c-0.065-0.001-0.125-0.019-0.19-0.019H111.411c-9.944,0-18.034-8.09-18.034-18.033V80.678   c0-9.944,8.09-18.033,18.034-18.033h115.53c3.742,0,6.774-3.034,6.774-6.774c0-3.741-3.033-6.774-6.774-6.774h-115.53   c-17.415,0-31.582,14.168-31.582,31.582v98.455c0,17.413,14.167,31.582,31.582,31.582h145.711l35.796,59.994   c1.243,2.086,3.476,3.304,5.817,3.304c0.598,0,1.202-0.079,1.8-0.243c2.938-0.81,4.975-3.482,4.975-6.531V203.94   C305.51,200.199,302.476,197.166,298.735,197.166z"/>
<path d="M472.898,137.237c-0.064-3.604-2.94-6.526-6.543-6.647c-20.816-0.714-38.245,4.287-51.847,14.821   c-2.958,2.29-3.5,6.545-1.21,9.503c2.291,2.958,6.548,3.497,9.504,1.21c9.508-7.362,21.58-11.377,35.964-11.972   c-1.135,7.313-4.452,19.154-14.143,27.778c-9.069,8.072-22.021,11.735-38.564,10.964c3.467-2.819,7.841-5.203,13.396-6.762   c3.604-1.012,5.703-4.75,4.693-8.353c-1.011-3.603-4.761-5.702-8.352-4.693c-17.12,4.804-26.667,15.762-31.619,26.99   c-10.635-16.385-34.544-28.86-37.492-30.354c-3.328-1.691-7.405-0.363-9.103,2.974c-1.693,3.336-0.362,7.411,2.972,9.106   c4.879,2.481,15.198,8.591,23.435,15.87c-21.931-0.009-38.894-5.699-50.462-17.02c-13.293-13.01-16.491-30.699-17.211-40.163   c19.861,1.429,36.242,7.577,48.772,18.324c2.841,2.433,7.118,2.107,9.553-0.733c2.435-2.839,2.107-7.116-0.733-9.553   c-16.44-14.098-38.108-21.466-64.402-21.893c-0.038,0-0.073,0-0.111,0c-3.556,0-6.514,2.754-6.758,6.313   c-0.094,1.392-2.052,34.306,21.299,57.272c14.206,13.974,34.373,21.022,60.069,21.022c3.441,0,7.007-0.161,10.645-0.414   c3.617,8.281,5.104,19.248,5.709,27.014c0.276,3.55,3.243,6.247,6.746,6.247c0.178,0,0.355-0.006,0.534-0.021   c3.729-0.291,6.518-3.549,6.227-7.28c-0.234-3-0.605-6.455-1.146-10.08c0.335-0.885,0.504-1.847,0.436-2.851   c-0.045-0.651-0.524-9.193,3.352-18.188c4.803,0.584,9.414,0.892,13.811,0.892c17.941,0,32.469-4.858,43.316-14.511   C473.171,164.661,472.919,138.35,472.898,137.237z"/>
</g>
</svg>