<?xml version="1.0" ?>
<!DOCTYPE svg  PUBLIC '-//W3C//DTD SVG 1.1//EN'  'http://www.w3.org/Graphics/SVG/1.1/DTD/svg11.dtd'>
<!-- Uploaded to: SVG Repo, www.svgrepo.com, Generator: SVG Repo Mixer Tools -->
<svg width="800px" height="800px" viewBox="0 0 32 32" enable-background="new 0 0 32 32" id="Layer_1" version="1.1" xml:space="preserve" xmlns="http://www.w3.org/2000/svg" xmlns:xlink="http://www.w3.org/1999/xlink">
<g id="social_integration_1_">
<g>
<path d="M28,28h-9.5c-0.512,0-1.044-0.253-1.608-0.521C16.396,27.243,15.884,27,15.5,27h-2    c-0.276,0-0.5-0.224-0.5-0.5s0.224-0.5,0.5-0.5h2c0.609,0,1.225,0.293,1.821,0.576C17.76,26.784,18.213,27,18.5,27H28    c0.551,0,1-0.448,1-1s-0.449-1-1-1c-0.276,0-0.5-0.224-0.5-0.5S27.724,24,28,24h0.5c0.551,0,1-0.448,1-1s-0.449-1-1-1    c-0.276,0-0.5-0.224-0.5-0.5s0.224-0.5,0.5-0.5H29c0.551,0,1-0.448,1-1s-0.449-1-1-1h-0.5c-0.276,0-0.5-0.224-0.5-0.5    s0.224-0.5,0.5-0.5c0.551,0,1-0.448,1-1s-0.449-1-1-1h-9.504c-0.154,0-0.299-0.071-0.394-0.192s-0.128-0.279-0.091-0.429    c0.004-0.02,0.485-1.975,0.485-4.313c0-2.601-1.039-2.995-1.997-3.055V11.5c0,0.077-0.018,0.154-0.053,0.224l-2.075,4.149    c-0.124,0.246-0.423,0.348-0.671,0.224c-0.247-0.124-0.347-0.424-0.224-0.671L16,11.382V7.5C16,7.224,16.224,7,16.5,7    c1.046,0,3.497,0,3.497,4.065c0,1.679-0.229,3.144-0.382,3.935H28.5c1.103,0,2,0.897,2,2c0,0.489-0.177,0.938-0.47,1.286    C30.611,18.637,31,19.273,31,20s-0.389,1.363-0.97,1.714c0.293,0.348,0.47,0.797,0.47,1.286c0,0.727-0.389,1.363-0.97,1.714    C29.823,25.062,30,25.511,30,26C30,27.103,29.103,28,28,28z" fill="#263238"/>
<g>
<g>
<g>
<path d="M13.551,28H10v-1h3v-9h-3v-1h3.551C13.828,17,14,17.207,14,17.482v10C14,27.76,13.828,28,13.551,28z" fill="#263238"/>
</g>
</g>
<g>
<g>
<path d="M1.551,30c-0.276,0-0.5-0.224-0.5-0.5l0,0c0-0.276,0.224-0.5,0.5-0.5H10V18H1.551       c-0.276,0-0.5-0.224-0.5-0.5l0,0c0-0.276,0.224-0.5,0.5-0.5h9C10.828,17,11,17.207,11,17.482v12C11,29.76,10.828,30,10.551,30       H1.551z" fill="#263238"/>
</g>
</g>
</g>
<g>
<g>
<path d="M29,22h-5c-1.103,0-2-0.897-2-2s0.897-2,2-2h5c1.103,0,2,0.897,2,2S30.103,22,29,22z M24,19      c-0.551,0-1,0.448-1,1s0.449,1,1,1h5c0.551,0,1-0.448,1-1s-0.449-1-1-1H24z" fill="#263238"/>
</g>
<g>
<path d="M28,28h-3c-1.103,0-2-0.897-2-2s0.897-2,2-2h3c1.103,0,2,0.897,2,2S29.103,28,28,28z M25,25      c-0.551,0-1,0.448-1,1s0.449,1,1,1h3c0.551,0,1-0.448,1-1s-0.449-1-1-1H25z" fill="#263238"/>
</g>
<g>
<path d="M28.5,25h-4c-1.103,0-2-0.897-2-2s0.897-2,2-2h4c1.103,0,2,0.897,2,2S29.603,25,28.5,25z M24.5,22      c-0.551,0-1,0.448-1,1s0.449,1,1,1h4c0.551,0,1-0.448,1-1s-0.449-1-1-1H24.5z" fill="#263238"/>
</g>
<g>
<path d="M28.5,19h-4c-1.103,0-2-0.897-2-2s0.897-2,2-2h4c1.103,0,2,0.897,2,2S29.603,19,28.5,19z M24.5,16      c-0.551,0-1,0.448-1,1s0.449,1,1,1h4c0.551,0,1-0.448,1-1s-0.449-1-1-1H24.5z" fill="#263238"/>
</g>
<g>
<path d="M17.608,23.054c-0.227,0-0.433-0.155-0.486-0.387c-0.063-0.269,0.104-0.537,0.373-0.601      c1.16-0.271,2.003-1.266,2.256-2.661c0.256-1.414-0.183-2.857-1.044-3.432c-0.23-0.153-0.292-0.464-0.139-0.693      c0.152-0.23,0.462-0.292,0.693-0.139c1.216,0.811,1.808,2.596,1.474,4.442c-0.326,1.8-1.452,3.092-3.012,3.457      C17.684,23.05,17.646,23.054,17.608,23.054z" fill="#263238"/>
</g>
</g>
</g>
<g>
<path d="M20.145,5.859c0.155,0,0.307-0.071,0.405-0.206l1.176-1.618c0.163-0.224,0.113-0.536-0.11-0.698    c-0.224-0.162-0.537-0.114-0.698,0.11l-1.176,1.618c-0.163,0.224-0.113,0.536,0.11,0.698C19.94,5.828,20.042,5.859,20.145,5.859z" fill="#263238"/>
<path d="M21.304,7.764c0.069,0.212,0.265,0.346,0.476,0.346c0.051,0,0.103-0.008,0.154-0.024l1.902-0.618    c0.263-0.085,0.407-0.367,0.321-0.63c-0.086-0.264-0.369-0.407-0.63-0.321l-1.902,0.618C21.363,7.219,21.219,7.501,21.304,7.764z" fill="#263238"/>
<path d="M13.696,10.236c-0.085-0.264-0.368-0.407-0.63-0.321l-1.902,0.618c-0.263,0.085-0.407,0.367-0.321,0.63    c0.069,0.212,0.265,0.346,0.476,0.346c0.051,0,0.103-0.008,0.154-0.024l1.902-0.618C13.637,10.781,13.781,10.499,13.696,10.236z" fill="#263238"/>
<path d="M23.836,10.533l-1.902-0.618c-0.263-0.086-0.544,0.058-0.63,0.321c-0.085,0.263,0.059,0.545,0.321,0.63    l1.902,0.618c0.051,0.017,0.103,0.024,0.154,0.024c0.211,0,0.407-0.134,0.476-0.346C24.243,10.9,24.099,10.618,23.836,10.533z" fill="#263238"/>
<path d="M11.164,7.467l1.902,0.618c0.051,0.017,0.103,0.024,0.154,0.024c0.211,0,0.407-0.134,0.476-0.346    c0.085-0.263-0.059-0.545-0.321-0.63l-1.902-0.618c-0.262-0.085-0.544,0.058-0.63,0.321C10.757,7.1,10.901,7.382,11.164,7.467z" fill="#263238"/>
<path d="M14.083,3.447c-0.162-0.225-0.475-0.272-0.698-0.11c-0.223,0.162-0.273,0.475-0.11,0.698l1.176,1.618    c0.098,0.135,0.25,0.206,0.405,0.206c0.102,0,0.205-0.031,0.293-0.096c0.223-0.162,0.273-0.475,0.11-0.698L14.083,3.447z" fill="#263238"/>
<path d="M17.5,2C17.224,2,17,2.224,17,2.5v2C17,4.776,17.224,5,17.5,5S18,4.776,18,4.5v-2    C18,2.224,17.776,2,17.5,2z" fill="#263238"/>
</g>
</g>
</svg>