<?xml version="1.0" ?>
<!DOCTYPE svg  PUBLIC '-//W3C//DTD SVG 1.1//EN'  'http://www.w3.org/Graphics/SVG/1.1/DTD/svg11.dtd'>
<!-- Uploaded to: SVG Repo, www.svgrepo.com, Generator: SVG Repo Mixer Tools -->
<svg fill="#000000" width="800px" height="800px" viewBox="0 0 512 512" enable-background="new 0 0 512 512" id="SEO" version="1.1" xml:space="preserve" xmlns="http://www.w3.org/2000/svg" xmlns:xlink="http://www.w3.org/1999/xlink">
<g>
<path d="M222.436,253.445c0-3.742-3.034-6.774-6.774-6.774h-68.324c-3.74,0-6.774,3.032-6.774,6.774v68.504   c0,3.741,3.034,6.773,6.774,6.773h68.324c3.74,0,6.774-3.032,6.774-6.773c0-3.742-3.034-6.774-6.774-6.774h-61.55v-54.956h61.55   C219.401,260.219,222.436,257.187,222.436,253.445z"/>
<path d="M461.091,246.671H325.165c-3.74,0-6.774,3.032-6.774,6.774c0,3.741,3.034,6.773,6.774,6.773h129.152v54.956H325.165   c-3.74,0-6.774,3.032-6.774,6.774c0,3.741,3.034,6.773,6.774,6.773h135.926c3.741,0,6.774-3.032,6.774-6.773v-68.504   C467.865,249.703,464.832,246.671,461.091,246.671z"/>
<path d="M301.537,376.719c-2.646-2.645-6.938-2.645-9.579,0c-2.646,2.646-2.646,6.936,0,9.581l48.884,48.885   c2.487,2.487,3.857,5.794,3.857,9.312c0,3.516-1.37,6.822-3.857,9.311c-2.487,2.486-5.793,3.856-9.311,3.856   s-6.823-1.37-9.311-3.857l-64.972-64.97c29.324-23.969,48.083-60.4,48.083-101.139c0-72.014-58.586-130.6-130.6-130.6   c-72.012,0-130.598,58.586-130.598,130.6c0,72.012,58.586,130.599,130.598,130.599c26.361,0,50.906-7.876,71.454-21.362   l66.455,66.452c5.044,5.046,11.755,7.826,18.89,7.826s13.845-2.78,18.89-7.825c5.047-5.046,7.827-11.755,7.827-18.891   c0-7.137-2.78-13.846-7.827-18.893L301.537,376.719z M174.732,404.747c-64.542,0-117.05-52.509-117.05-117.05   c0-64.543,52.508-117.051,117.05-117.051s117.051,52.508,117.051,117.051C291.783,352.238,239.274,404.747,174.732,404.747z"/>
<path d="M174.732,197.017c-50.001,0-90.681,40.679-90.681,90.681s40.68,90.682,90.681,90.682s90.681-40.68,90.681-90.682   S224.733,197.017,174.732,197.017z M174.732,364.83c-42.531,0-77.132-34.602-77.132-77.133s34.601-77.133,77.132-77.133   s77.132,34.602,77.132,77.133S217.264,364.83,174.732,364.83z"/>
<path d="M226.072,99.583c2.334,2.925,6.598,3.404,9.521,1.07c2.926-2.334,3.403-6.596,1.071-9.521L227.23,79.31l14.582-4.02   c1.58-0.437,2.951-1.432,3.854-2.801l8.327-12.625l8.328,12.625c0.903,1.369,2.274,2.364,3.854,2.801l14.582,4.02l-9.434,11.823   c-1.022,1.282-1.546,2.892-1.471,4.53l0.683,15.11l-14.161-5.317c-1.535-0.576-3.229-0.576-4.763,0l-23.772,8.929   c-3.502,1.315-5.275,5.221-3.96,8.723c1.021,2.719,3.602,4.395,6.344,4.395c0.79,0,1.595-0.14,2.379-0.435l21.391-8.034   l21.391,8.034c2.131,0.8,4.52,0.479,6.364-0.86c1.841-1.338,2.888-3.512,2.784-5.786l-1.03-22.827l14.252-17.859   c1.419-1.779,1.851-4.153,1.147-6.318c-0.705-2.166-2.448-3.833-4.643-4.438l-22.029-6.074l-12.581-19.072   c-1.255-1.9-3.379-3.044-5.655-3.044c-2.275,0-4.399,1.144-5.654,3.044l-12.581,19.072l-22.029,6.074   c-2.194,0.604-3.938,2.271-4.643,4.438c-0.703,2.165-0.272,4.539,1.147,6.318L226.072,99.583z"/>
<path d="M114.85,117.396c2.334,2.927,6.597,3.401,9.521,1.071c2.924-2.334,3.404-6.596,1.071-9.52l-9.434-11.824l14.581-4.02   c1.582-0.437,2.952-1.432,3.855-2.801l8.328-12.625l8.327,12.625c0.904,1.369,2.274,2.364,3.856,2.801l14.58,4.02l-9.434,11.824   c-1.022,1.281-1.544,2.892-1.47,4.529l0.682,15.11l-14.16-5.318c-1.535-0.577-3.229-0.577-4.764,0l-23.771,8.93   c-3.503,1.315-5.275,5.222-3.96,8.724c1.021,2.718,3.601,4.394,6.343,4.394c0.79,0,1.596-0.14,2.38-0.435l21.391-8.034   l21.391,8.034c2.126,0.8,4.519,0.479,6.363-0.86c1.842-1.339,2.889-3.513,2.784-5.786l-1.029-22.827l14.251-17.861   c1.42-1.779,1.851-4.152,1.147-6.317c-0.705-2.165-2.447-3.833-4.645-4.438l-22.027-6.072l-12.58-19.074   c-1.256-1.9-3.378-3.044-5.655-3.044c-2.278,0-4.4,1.144-5.655,3.044l-12.581,19.074l-22.027,6.072   c-2.196,0.604-3.939,2.272-4.644,4.438c-0.703,2.165-0.272,4.538,1.146,6.317L114.85,117.396z"/>
<path d="M337.294,117.396c2.335,2.927,6.599,3.401,9.521,1.071c2.924-2.334,3.404-6.596,1.072-9.52l-9.434-11.824l14.58-4.02   c1.582-0.437,2.952-1.432,3.855-2.801l8.328-12.625l8.328,12.625c0.903,1.369,2.273,2.364,3.855,2.801l14.581,4.02l-9.435,11.824   c-1.022,1.281-1.544,2.892-1.471,4.529l0.683,15.11l-14.16-5.318c-1.535-0.577-3.229-0.577-4.763,0l-23.772,8.93   c-3.503,1.315-5.275,5.222-3.96,8.724c1.021,2.718,3.601,4.394,6.344,4.394c0.789,0,1.595-0.14,2.379-0.435l21.391-8.034   l21.391,8.034c2.127,0.8,4.52,0.479,6.364-0.86c1.841-1.339,2.888-3.513,2.784-5.786l-1.031-22.827l14.252-17.861   c1.42-1.779,1.851-4.152,1.147-6.317c-0.705-2.165-2.448-3.833-4.644-4.438l-22.027-6.072l-12.581-19.074   c-1.255-1.9-3.378-3.044-5.655-3.044s-4.4,1.144-5.655,3.044l-12.58,19.074l-22.028,6.072c-2.196,0.604-3.938,2.272-4.644,4.438   c-0.703,2.165-0.272,4.538,1.147,6.317L337.294,117.396z"/>
<path d="M172.311,277.003v21.388c0,3.742,3.034,6.775,6.774,6.775c3.741,0,6.774-3.033,6.774-6.775v-21.388   c0-3.741-3.033-6.774-6.774-6.774C175.345,270.229,172.311,273.262,172.311,277.003z"/>
</g>
</svg>